<mxfile host="app.diagrams.net" modified="2021-08-25T02:33:45.154Z" agent="5.0 (Macintosh; Intel Mac OS X 10_15_7) AppleWebKit/537.36 (KHTML, like Gecko) Chrome/86.0.4240.193 Safari/537.36" etag="piekxuwG_kWK0aRj0UYs" version="14.9.8" type="github">
  <diagram id="Gcg0DGWer6z9rrGxzFkv" name="Page-1">
    <mxGraphModel dx="946" dy="536" grid="1" gridSize="10" guides="1" tooltips="1" connect="1" arrows="1" fold="1" page="1" pageScale="1" pageWidth="827" pageHeight="1169" math="0" shadow="0">
      <root>
        <mxCell id="0" />
        <mxCell id="1" parent="0" />
        <mxCell id="A3nBHT36vVCW6fz6Fcjb-1" style="rounded=0;orthogonalLoop=1;jettySize=auto;html=1;exitX=0;exitY=1;exitDx=0;exitDy=0;entryX=0.7;entryY=0.05;entryDx=0;entryDy=0;entryPerimeter=0;fillColor=#dae8fc;strokeColor=#6c8ebf;" edge="1" parent="1" source="A3nBHT36vVCW6fz6Fcjb-3" target="A3nBHT36vVCW6fz6Fcjb-6">
          <mxGeometry relative="1" as="geometry" />
        </mxCell>
        <mxCell id="A3nBHT36vVCW6fz6Fcjb-2" style="edgeStyle=none;rounded=0;orthogonalLoop=1;jettySize=auto;html=1;exitX=1;exitY=1;exitDx=0;exitDy=0;fillColor=#dae8fc;strokeColor=#6c8ebf;" edge="1" parent="1" source="A3nBHT36vVCW6fz6Fcjb-3" target="A3nBHT36vVCW6fz6Fcjb-8">
          <mxGeometry relative="1" as="geometry" />
        </mxCell>
        <mxCell id="A3nBHT36vVCW6fz6Fcjb-3" value="4" style="ellipse;whiteSpace=wrap;html=1;aspect=fixed;fillColor=#dae8fc;strokeColor=#6c8ebf;" vertex="1" parent="1">
          <mxGeometry x="220" y="110" width="40" height="40" as="geometry" />
        </mxCell>
        <mxCell id="A3nBHT36vVCW6fz6Fcjb-4" style="edgeStyle=none;rounded=0;orthogonalLoop=1;jettySize=auto;html=1;exitX=0;exitY=1;exitDx=0;exitDy=0;entryX=0.5;entryY=0;entryDx=0;entryDy=0;fillColor=#dae8fc;strokeColor=#6c8ebf;" edge="1" parent="1" source="A3nBHT36vVCW6fz6Fcjb-6" target="A3nBHT36vVCW6fz6Fcjb-9">
          <mxGeometry relative="1" as="geometry" />
        </mxCell>
        <mxCell id="A3nBHT36vVCW6fz6Fcjb-5" style="edgeStyle=none;rounded=0;orthogonalLoop=1;jettySize=auto;html=1;exitX=1;exitY=1;exitDx=0;exitDy=0;entryX=0.5;entryY=0;entryDx=0;entryDy=0;fillColor=#dae8fc;strokeColor=#6c8ebf;" edge="1" parent="1" source="A3nBHT36vVCW6fz6Fcjb-6" target="A3nBHT36vVCW6fz6Fcjb-10">
          <mxGeometry relative="1" as="geometry" />
        </mxCell>
        <mxCell id="A3nBHT36vVCW6fz6Fcjb-6" value="10" style="ellipse;whiteSpace=wrap;html=1;aspect=fixed;fillColor=#dae8fc;strokeColor=#6c8ebf;" vertex="1" parent="1">
          <mxGeometry x="160" y="190" width="40" height="40" as="geometry" />
        </mxCell>
        <mxCell id="A3nBHT36vVCW6fz6Fcjb-7" style="edgeStyle=none;rounded=0;orthogonalLoop=1;jettySize=auto;html=1;exitX=0;exitY=1;exitDx=0;exitDy=0;entryX=0.5;entryY=0;entryDx=0;entryDy=0;fillColor=#dae8fc;strokeColor=#6c8ebf;" edge="1" parent="1" source="A3nBHT36vVCW6fz6Fcjb-8" target="A3nBHT36vVCW6fz6Fcjb-11">
          <mxGeometry relative="1" as="geometry" />
        </mxCell>
        <mxCell id="A3nBHT36vVCW6fz6Fcjb-13" style="rounded=0;orthogonalLoop=1;jettySize=auto;html=1;exitX=1;exitY=1;exitDx=0;exitDy=0;fillColor=#dae8fc;strokeColor=#6c8ebf;" edge="1" parent="1" source="A3nBHT36vVCW6fz6Fcjb-8" target="A3nBHT36vVCW6fz6Fcjb-12">
          <mxGeometry relative="1" as="geometry" />
        </mxCell>
        <mxCell id="A3nBHT36vVCW6fz6Fcjb-8" value="3" style="ellipse;whiteSpace=wrap;html=1;aspect=fixed;fillColor=#dae8fc;strokeColor=#6c8ebf;" vertex="1" parent="1">
          <mxGeometry x="270" y="190" width="40" height="40" as="geometry" />
        </mxCell>
        <mxCell id="A3nBHT36vVCW6fz6Fcjb-9" value="5" style="ellipse;whiteSpace=wrap;html=1;aspect=fixed;fillColor=#dae8fc;strokeColor=#6c8ebf;" vertex="1" parent="1">
          <mxGeometry x="120" y="270" width="40" height="40" as="geometry" />
        </mxCell>
        <mxCell id="A3nBHT36vVCW6fz6Fcjb-10" value="1" style="ellipse;whiteSpace=wrap;html=1;aspect=fixed;fillColor=#dae8fc;strokeColor=#6c8ebf;" vertex="1" parent="1">
          <mxGeometry x="190" y="270" width="40" height="40" as="geometry" />
        </mxCell>
        <mxCell id="A3nBHT36vVCW6fz6Fcjb-11" value="2" style="ellipse;whiteSpace=wrap;html=1;aspect=fixed;fillColor=#dae8fc;strokeColor=#6c8ebf;" vertex="1" parent="1">
          <mxGeometry x="240" y="270" width="40" height="40" as="geometry" />
        </mxCell>
        <mxCell id="A3nBHT36vVCW6fz6Fcjb-12" value="0" style="ellipse;whiteSpace=wrap;html=1;aspect=fixed;fillColor=#dae8fc;strokeColor=#6c8ebf;" vertex="1" parent="1">
          <mxGeometry x="310" y="270" width="40" height="40" as="geometry" />
        </mxCell>
        <mxCell id="A3nBHT36vVCW6fz6Fcjb-14" value="0" style="text;html=1;align=center;verticalAlign=middle;resizable=0;points=[];autosize=1;strokeColor=none;" vertex="1" parent="1">
          <mxGeometry x="230" y="160" width="20" height="20" as="geometry" />
        </mxCell>
        <mxCell id="A3nBHT36vVCW6fz6Fcjb-15" value="1" style="text;html=1;align=center;verticalAlign=middle;resizable=0;points=[];autosize=1;strokeColor=none;" vertex="1" parent="1">
          <mxGeometry x="170" y="230" width="20" height="20" as="geometry" />
        </mxCell>
        <mxCell id="A3nBHT36vVCW6fz6Fcjb-16" value="2" style="text;html=1;align=center;verticalAlign=middle;resizable=0;points=[];autosize=1;strokeColor=none;" vertex="1" parent="1">
          <mxGeometry x="280" y="230" width="20" height="20" as="geometry" />
        </mxCell>
        <mxCell id="A3nBHT36vVCW6fz6Fcjb-17" value="3" style="text;html=1;align=center;verticalAlign=middle;resizable=0;points=[];autosize=1;strokeColor=none;" vertex="1" parent="1">
          <mxGeometry x="120" y="320" width="20" height="20" as="geometry" />
        </mxCell>
        <mxCell id="A3nBHT36vVCW6fz6Fcjb-18" value="4" style="text;html=1;align=center;verticalAlign=middle;resizable=0;points=[];autosize=1;strokeColor=none;" vertex="1" parent="1">
          <mxGeometry x="200" y="320" width="20" height="20" as="geometry" />
        </mxCell>
        <mxCell id="A3nBHT36vVCW6fz6Fcjb-19" value="5" style="text;html=1;align=center;verticalAlign=middle;resizable=0;points=[];autosize=1;strokeColor=none;" vertex="1" parent="1">
          <mxGeometry x="250" y="320" width="20" height="20" as="geometry" />
        </mxCell>
        <mxCell id="A3nBHT36vVCW6fz6Fcjb-20" value="6" style="text;html=1;align=center;verticalAlign=middle;resizable=0;points=[];autosize=1;strokeColor=none;" vertex="1" parent="1">
          <mxGeometry x="330" y="320" width="20" height="20" as="geometry" />
        </mxCell>
      </root>
    </mxGraphModel>
  </diagram>
</mxfile>
